<?xml version="1.0" standalone="no"?>
<!DOCTYPE svg PUBLIC "-//W3C//DTD SVG 1.1//EN" "http://www.w3.org/Graphics/SVG/1.1/DTD/svg11.dtd" >
<svg xmlns="http://www.w3.org/2000/svg">
<metadata></metadata>
<defs>
<font id="sabofilled" horiz-adv-x="1536" >
<font-face units-per-em="2048" ascent="1638" descent="-410" />
<missing-glyph horiz-adv-x="921" />
<glyph horiz-adv-x="0" />
<glyph horiz-adv-x="682" />
<glyph unicode=" "  horiz-adv-x="921" />
<glyph unicode="&#x09;" horiz-adv-x="921" />
<glyph unicode="&#xa0;" horiz-adv-x="921" />
<glyph unicode="!" horiz-adv-x="768" d="M154 0v307h460v-307h-460zM154 461v921h460v-921h-460z" />
<glyph unicode="+" horiz-adv-x="1382" d="M154 461v461h307v307h461v-307h307v-461h-307v-307h-461v307h-307z" />
<glyph unicode="," horiz-adv-x="614" d="M154 -154v461h307v-307h-154v-154h-153z" />
<glyph unicode="-" d="M154 461v461h1228v-461h-1228z" />
<glyph unicode="." horiz-adv-x="614" d="M154 0v307h307v-307h-307z" />
<glyph unicode="0" horiz-adv-x="1382" d="M154 154v1075h153v153h768v-153h154v-1075h-154v-154h-768v154h-153zM614 461h154v461h-154v-461z" />
<glyph unicode="1" horiz-adv-x="1075" d="M154 922v460h768v-1382h-461v922h-307z" />
<glyph unicode="2" d="M154 0v307h153v154h154v153h153v154h154v307h-307v-153h-307v307h153v153h922v-153h153v-461h-153v-154h-154v-153h-153v-154h460v-307h-1228z" />
<glyph unicode="3" d="M154 0v461h768v153h-461v154h461v154h-768v460h1075v-153h153v-1075h-153v-154h-1075z" />
<glyph unicode="4" d="M154 307v1075h460v-614h308v614h460v-1382h-460v307h-768z" />
<glyph unicode="5" d="M154 154v307h460v-154h308v307h-615v154h-153v614h1228v-307h-768v-307h615v-154h153v-460h-153v-154h-922v154h-153z" />
<glyph unicode="6" d="M154 154v1075h153v153h922v-460h-615v-154h615v-154h153v-460h-153v-154h-922v154h-153zM614 461h308v153h-308v-153z" />
<glyph unicode="7" d="M154 922v460h1228v-460h-153v-154h-154v-154h-153v-614h-461v768h153v154h-460z" />
<glyph unicode="8" d="M154 154v460h153v154h-153v461h153v153h922v-153h153v-461h-153v-154h153v-460h-153v-154h-922v154h-153zM614 307h308v307h-308v-307zM614 768h308v307h-308v-307z" />
<glyph unicode="9" d="M154 768v461h153v153h922v-153h153v-1075h-153v-154h-922v461h615v153h-615v154h-153zM614 768h308v154h-308v-154z" />
<glyph unicode=":" horiz-adv-x="614" d="M154 0v307h307v-307h-307zM154 614v308h307v-308h-307z" />
<glyph unicode="?" horiz-adv-x="1382" d="M154 768v461h153v153h768v-153h154v-461h-154v-154h-153v-153h-461v307h153v154h154v153h-307v-307h-307zM461 0v307h461v-307h-461z" />
<glyph unicode="A" d="M154 0v1229h307v153h614v-153h307v-1229h-460v461h-308v-461h-460zM614 614h308v308h-308v-308z" />
<glyph unicode="B" d="M154 0v1382h921v-153h154v-461h153v-614h-153v-154h-1075zM614 307h461v154h-153v153h-308v-307zM614 922h308v153h-308v-153z" />
<glyph unicode="C" d="M154 154v1075h307v153h921v-460h-768v-461h768v-461h-921v154h-307z" />
<glyph unicode="D" d="M154 0v1382h1075v-153h153v-1075h-153v-154h-1075zM614 461h308v461h-308v-461z" />
<glyph unicode="E" d="M154 0v1382h1228v-460h-768v-154h615v-154h-615v-153h768v-461h-1228z" />
<glyph unicode="F" d="M154 0v1382h1228v-460h-768v-154h615v-461h-615v-307h-460z" />
<glyph unicode="G" d="M154 154v1075h307v153h921v-460h-768v-461h308v153h460v-614h-921v154h-307z" />
<glyph unicode="H" d="M154 0v1382h460v-460h308v460h460v-1382h-460v461h-308v-461h-460z" />
<glyph unicode="I" horiz-adv-x="768" d="M154 0v1382h460v-1382h-460z" />
<glyph unicode="J" horiz-adv-x="1075" d="M154 154h307v1228h461v-1536h-154v-153h-614v461z" />
<glyph unicode="K" d="M154 0v1382h460v-307h154v154h154v153h460v-307h-153v-153h-154v-154h-153v-154h153v-153h154v-154h153v-307h-460v154h-154v153h-154v-307h-460z" />
<glyph unicode="L" horiz-adv-x="1382" d="M154 0v1382h460v-921h615v-461h-1075z" />
<glyph unicode="M" horiz-adv-x="1689" d="M154 0v1382h460v-153h154v-154h154v154h153v153h461v-1382h-461v614h-153v-153h-154v153h-154v-614h-460z" />
<glyph unicode="N" d="M154 0v1382h307v-153h153v-154h154v-153h154v460h460v-1382h-307v154h-153v153h-154v154h-154v-461h-460z" />
<glyph unicode="O" d="M154 154v1075h153v153h922v-153h153v-1075h-153v-154h-922v154h-153zM614 461h308v461h-308v-461z" />
<glyph unicode="P" d="M154 0v1382h1075v-153h153v-768h-153v-154h-615v-307h-460zM614 768h308v154h-308v-154z" />
<glyph unicode="Q" d="M154 154v1075h153v153h922v-153h153v-1075h-153v-154h-154v-154h-307v154h-461v154h-153zM614 461h308v461h-308v-461zM1075 -154h307v-153h-307v153z" />
<glyph unicode="R" d="M154 0v1382h1075v-153h153v-768h-153v-154h153v-307h-460v154h-154v153h-154v-307h-460zM614 768h308v154h-308v-154z" />
<glyph unicode="S" d="M154 154v307h768v153h-615v154h-153v461h153v153h922v-153h153v-307h-768v-154h615v-154h153v-460h-153v-154h-922v154h-153z" />
<glyph unicode="T" horiz-adv-x="1689" d="M154 922v460h1382v-460h-461v-922h-461v922h-460z" />
<glyph unicode="U" d="M154 154v1228h460v-921h308v921h460v-1228h-153v-154h-922v154h-153z" />
<glyph unicode="V" d="M154 461v921h460v-768h308v768h460v-921h-153v-154h-154v-153h-153v-154h-308v154h-153v153h-154v154h-153z" />
<glyph unicode="W" horiz-adv-x="1689" d="M154 0v1382h460v-614h154v154h154v-154h153v614h461v-1382h-461v154h-153v153h-154v-153h-154v-154h-460z" />
<glyph unicode="X" horiz-adv-x="1689" d="M154 0v307h153v154h154v153h153v154h-153v154h-154v153h-153v307h460v-153h154v-154h154v154h153v153h461v-307h-154v-153h-153v-154h-154v-154h154v-153h153v-154h154v-307h-461v154h-153v153h-154v-153h-154v-154h-460z" />
<glyph unicode="Y" horiz-adv-x="1689" d="M154 1075v307h460v-153h154v-154h154v154h153v153h461v-307h-154v-153h-153v-154h-154v-768h-461v768h-153v154h-154v153h-153z" />
<glyph unicode="Z" d="M154 0v461h153v153h154v154h153v154h-460v460h1228v-460h-153v-154h-154v-154h-153v-153h460v-461h-1228z" />
<glyph unicode="`" horiz-adv-x="614" d="M154 1690v153h153v-153h-153zM307 1536v154h154v-154h-154z" />
<glyph unicode="a" d="M154 0v1229h307v153h614v-153h307v-1229h-460v461h-308v-461h-460zM614 614h308v308h-308v-308z" />
<glyph unicode="b" d="M154 0v1382h921v-153h154v-461h153v-614h-153v-154h-1075zM614 307h461v154h-153v153h-308v-307zM614 922h308v153h-308v-153z" />
<glyph unicode="c" d="M154 154v1075h307v153h921v-460h-768v-461h768v-461h-921v154h-307z" />
<glyph unicode="d" d="M154 0v1382h1075v-153h153v-1075h-153v-154h-1075zM614 461h308v461h-308v-461z" />
<glyph unicode="e" d="M154 0v1382h1228v-460h-768v-154h615v-154h-615v-153h768v-461h-1228z" />
<glyph unicode="f" d="M154 0v1382h1228v-460h-768v-154h615v-461h-615v-307h-460z" />
<glyph unicode="g" d="M154 154v1075h307v153h921v-460h-768v-461h308v153h460v-614h-921v154h-307z" />
<glyph unicode="h" d="M154 0v1382h460v-460h308v460h460v-1382h-460v461h-308v-461h-460z" />
<glyph unicode="i" horiz-adv-x="768" d="M154 0v1382h460v-1382h-460z" />
<glyph unicode="j" horiz-adv-x="1075" d="M154 154h307v1228h461v-1536h-154v-153h-614v461z" />
<glyph unicode="k" d="M154 0v1382h460v-307h154v154h154v153h460v-307h-153v-153h-154v-154h-153v-154h153v-153h154v-154h153v-307h-460v154h-154v153h-154v-307h-460z" />
<glyph unicode="l" horiz-adv-x="1382" d="M154 0v1382h460v-921h615v-461h-1075z" />
<glyph unicode="m" horiz-adv-x="1689" d="M154 0v1382h460v-153h154v-154h154v154h153v153h461v-1382h-461v614h-153v-153h-154v153h-154v-614h-460z" />
<glyph unicode="n" d="M154 0v1382h307v-153h153v-154h154v-153h154v460h460v-1382h-307v154h-153v153h-154v154h-154v-461h-460z" />
<glyph unicode="o" d="M154 154v1075h153v153h922v-153h153v-1075h-153v-154h-922v154h-153zM614 461h308v461h-308v-461z" />
<glyph unicode="p" d="M154 0v1382h1075v-153h153v-768h-153v-154h-615v-307h-460zM614 768h308v154h-308v-154z" />
<glyph unicode="q" d="M154 154v1075h153v153h922v-153h153v-1075h-153v-154h-154v-154h-307v154h-461v154h-153zM614 461h308v461h-308v-461zM1075 -154h307v-153h-307v153z" />
<glyph unicode="r" d="M154 0v1382h1075v-153h153v-768h-153v-154h153v-307h-460v154h-154v153h-154v-307h-460zM614 768h308v154h-308v-154z" />
<glyph unicode="s" d="M154 154v307h768v153h-615v154h-153v461h153v153h922v-153h153v-307h-768v-154h615v-154h153v-460h-153v-154h-922v154h-153z" />
<glyph unicode="t" horiz-adv-x="1689" d="M154 922v460h1382v-460h-461v-922h-461v922h-460z" />
<glyph unicode="u" d="M154 154v1228h460v-921h308v921h460v-1228h-153v-154h-922v154h-153z" />
<glyph unicode="v" d="M154 461v921h460v-768h308v768h460v-921h-153v-154h-154v-153h-153v-154h-308v154h-153v153h-154v154h-153z" />
<glyph unicode="w" horiz-adv-x="1689" d="M154 0v1382h460v-614h154v154h154v-154h153v614h461v-1382h-461v154h-153v153h-154v-153h-154v-154h-460z" />
<glyph unicode="x" horiz-adv-x="1689" d="M154 0v307h153v154h154v153h153v154h-153v154h-154v153h-153v307h460v-153h154v-154h154v154h153v153h461v-307h-154v-153h-153v-154h-154v-154h154v-153h153v-154h154v-307h-461v154h-153v153h-154v-153h-154v-154h-460z" />
<glyph unicode="y" horiz-adv-x="1689" d="M154 1075v307h460v-153h154v-154h154v154h153v153h461v-307h-154v-153h-153v-154h-154v-768h-461v768h-153v154h-154v153h-153z" />
<glyph unicode="z" d="M154 0v461h153v153h154v154h153v154h-460v460h1228v-460h-153v-154h-154v-154h-153v-153h460v-461h-1228z" />
<glyph unicode="&#xa1;" horiz-adv-x="768" d="M154 461h460v-922h-460v922zM154 614v308h460v-308h-460z" />
<glyph unicode="&#xa8;" horiz-adv-x="1228" d="M154 1536v154h153v-154h-153zM922 1536v154h153v-154h-153z" />
<glyph unicode="&#xad;" d="M154 461v461h1228v-461h-1228z" />
<glyph unicode="&#xaf;" horiz-adv-x="921" d="M154 1536v154h614v-154h-614z" />
<glyph unicode="&#xb4;" horiz-adv-x="614" d="M154 1536v154h153v-154h-153zM307 1690v153h154v-153h-154z" />
<glyph unicode="&#xb8;" horiz-adv-x="614" d="M154 0h153v-154h-153v154zM154 -307h153v-154h-153v154zM307 -154h154v-153h-154v153z" />
<glyph unicode="&#xbf;" horiz-adv-x="1382" d="M154 154h307v-308h307v154h-154v154h-153v307h461v-154h153v-153h154v-461h-154v-154h-768v154h-153v461zM461 614v308h461v-308h-461z" />
<glyph unicode="&#xc0;" d="M154 0v1229h307v153h614v-153h307v-1229h-460v461h-308v-461h-460zM614 614h308v308h-308v-308zM614 1690v153h154v-153h-154zM768 1536v154h154v-154h-154z" />
<glyph unicode="&#xc1;" d="M154 0v1229h307v153h614v-153h307v-1229h-460v461h-308v-461h-460zM614 614h308v308h-308v-308zM614 1536v154h154v-154h-154zM768 1690v153h154v-153h-154z" />
<glyph unicode="&#xc2;" d="M154 0v1229h307v153h614v-153h307v-1229h-460v461h-308v-461h-460zM461 1536v154h153v-154h-153zM614 614h308v308h-308v-308zM614 1690v153h308v-153h-308zM922 1536v154h153v-154h-153z" />
<glyph unicode="&#xc3;" d="M154 0v1229h307v153h614v-153h307v-1229h-460v461h-308v-461h-460zM461 1536v154h153v-154h-153zM614 614h308v308h-308v-308zM614 1690v153h154v-153h-154zM768 1536v154h154v-154h-154zM922 1690v153h153v-153h-153z" />
<glyph unicode="&#xc4;" d="M154 0v1229h307v153h614v-153h307v-1229h-460v461h-308v-461h-460zM307 1536v154h154v-154h-154zM614 614h308v308h-308v-308zM1075 1536v154h154v-154h-154z" />
<glyph unicode="&#xc5;" d="M154 0v1229h307v153h153v154h154v-154h307v-153h307v-1229h-460v461h-308v-461h-460zM461 1536v154h153v-154h-153zM614 614h308v308h-308v-308zM614 1690v153h154v-153h-154zM768 1536v154h154v-154h-154z" />
<glyph unicode="&#xc6;" horiz-adv-x="2304" d="M154 0v1229h307v153h614v-153h154v153h921v-460h-768v-154h615v-154h-615v-153h768v-461h-1228v461h-308v-461h-460zM614 614h308v308h-308v-308z" />
<glyph unicode="&#xc7;" d="M154 154v1075h307v153h921v-460h-768v-461h768v-461h-460v-154h-154v154h-307v154h-307zM768 -307h154v-154h-154v154zM922 -154h153v-153h-153v153z" />
<glyph unicode="&#xc8;" d="M154 0v1382h1228v-460h-768v-154h615v-154h-615v-153h768v-461h-1228zM614 1690v153h154v-153h-154zM768 1536v154h154v-154h-154z" />
<glyph unicode="&#xc9;" d="M154 0v1382h1228v-460h-768v-154h615v-154h-615v-153h768v-461h-1228zM614 1536v154h154v-154h-154zM768 1690v153h154v-153h-154z" />
<glyph unicode="&#xca;" d="M154 0v1382h1228v-460h-768v-154h615v-154h-615v-153h768v-461h-1228zM461 1536v154h153v-154h-153zM614 1690v153h308v-153h-308zM922 1536v154h153v-154h-153z" />
<glyph unicode="&#xcb;" d="M154 0v1382h1228v-460h-768v-154h615v-154h-615v-153h768v-461h-1228zM307 1536v154h154v-154h-154zM1075 1536v154h154v-154h-154z" />
<glyph unicode="&#xcc;" horiz-adv-x="768" d="M154 0v1382h460v-1382h-460zM154 1690v153h153v-153h-153zM307 1536v154h154v-154h-154z" />
<glyph unicode="&#xce;" horiz-adv-x="768" d="M154 0v1382h460v-1382h-460zM154 1536v154h153v-154h-153zM307 1690v153h154v-153h-154zM461 1536v154h153v-154h-153z" />
<glyph unicode="&#xcf;" horiz-adv-x="768" d="M154 0v1382h460v-1382h-460zM154 1536v154h153v-154h-153zM461 1536v154h153v-154h-153z" />
<glyph unicode="&#xd1;" d="M154 0v1382h307v-153h153v-154h154v-153h154v460h460v-1382h-307v154h-153v153h-154v154h-154v-461h-460zM461 1536v154h153v-154h-153zM614 1690v153h154v-153h-154zM768 1536v154h154v-154h-154zM922 1690v153h153v-153h-153z" />
<glyph unicode="&#xd2;" d="M154 154v1075h153v153h922v-153h153v-1075h-153v-154h-922v154h-153zM614 461h308v461h-308v-461zM614 1690v153h154v-153h-154zM768 1536v154h154v-154h-154z" />
<glyph unicode="&#xd3;" d="M154 154v1075h153v153h922v-153h153v-1075h-153v-154h-922v154h-153zM614 461h308v461h-308v-461zM614 1536v154h154v-154h-154zM768 1690v153h154v-153h-154z" />
<glyph unicode="&#xd4;" d="M154 154v1075h153v153h922v-153h153v-1075h-153v-154h-922v154h-153zM461 1536v154h153v-154h-153zM614 461h308v461h-308v-461zM614 1690v153h308v-153h-308zM922 1536v154h153v-154h-153z" />
<glyph unicode="&#xd5;" d="M154 154v1075h153v153h922v-153h153v-1075h-153v-154h-922v154h-153zM461 1536v154h153v-154h-153zM614 461h308v461h-308v-461zM614 1690v153h154v-153h-154zM768 1536v154h154v-154h-154zM922 1690v153h153v-153h-153z" />
<glyph unicode="&#xd6;" d="M154 154v1075h153v153h922v-153h153v-1075h-153v-154h-922v154h-153zM307 1536v154h154v-154h-154zM614 461h308v461h-308v-461zM1075 1536v154h154v-154h-154z" />
<glyph unicode="&#xd9;" d="M154 154v1228h460v-921h308v921h460v-1228h-153v-154h-922v154h-153zM614 1690v153h154v-153h-154zM768 1536v154h154v-154h-154z" />
<glyph unicode="&#xda;" d="M154 154v1228h460v-921h308v921h460v-1228h-153v-154h-922v154h-153zM614 1536v154h154v-154h-154zM768 1690v153h154v-153h-154z" />
<glyph unicode="&#xdb;" d="M154 154v1228h460v-921h308v921h460v-1228h-153v-154h-922v154h-153zM461 1536v154h153v-154h-153zM614 1690v153h308v-153h-308zM922 1536v154h153v-154h-153z" />
<glyph unicode="&#xdc;" d="M154 154v1228h460v-921h308v921h460v-1228h-153v-154h-922v154h-153zM307 1536v154h154v-154h-154zM1075 1536v154h154v-154h-154z" />
<glyph unicode="&#xdd;" horiz-adv-x="1689" d="M154 1075v307h460v-153h154v-154h154v154h153v153h461v-307h-154v-153h-153v-154h-154v-768h-461v768h-153v154h-154v153h-153zM768 1536v154h154v-154h-154zM922 1690v153h153v-153h-153z" />
<glyph unicode="&#xe0;" d="M154 0v1229h307v153h614v-153h307v-1229h-460v461h-308v-461h-460zM614 614h308v308h-308v-308zM614 1690v153h154v-153h-154zM768 1536v154h154v-154h-154z" />
<glyph unicode="&#xe1;" d="M154 0v1229h307v153h614v-153h307v-1229h-460v461h-308v-461h-460zM614 614h308v308h-308v-308zM614 1536v154h154v-154h-154zM768 1690v153h154v-153h-154z" />
<glyph unicode="&#xe2;" d="M154 0v1229h307v153h614v-153h307v-1229h-460v461h-308v-461h-460zM461 1536v154h153v-154h-153zM614 614h308v308h-308v-308zM614 1690v153h308v-153h-308zM922 1536v154h153v-154h-153z" />
<glyph unicode="&#xe3;" d="M154 0v1229h307v153h614v-153h307v-1229h-460v461h-308v-461h-460zM461 1536v154h153v-154h-153zM614 614h308v308h-308v-308zM614 1690v153h154v-153h-154zM768 1536v154h154v-154h-154zM922 1690v153h153v-153h-153z" />
<glyph unicode="&#xe4;" d="M154 0v1229h307v153h614v-153h307v-1229h-460v461h-308v-461h-460zM307 1536v154h154v-154h-154zM614 614h308v308h-308v-308zM1075 1536v154h154v-154h-154z" />
<glyph unicode="&#xe5;" d="M154 0v1229h307v153h153v154h154v-154h307v-153h307v-1229h-460v461h-308v-461h-460zM461 1536v154h153v-154h-153zM614 614h308v308h-308v-308zM614 1690v153h154v-153h-154zM768 1536v154h154v-154h-154z" />
<glyph unicode="&#xe6;" horiz-adv-x="2304" d="M154 0v1229h307v153h614v-153h154v153h921v-460h-768v-154h615v-154h-615v-153h768v-461h-1228v461h-308v-461h-460zM614 614h308v308h-308v-308z" />
<glyph unicode="&#xe7;" d="M154 154v1075h307v153h921v-460h-768v-461h768v-461h-460v-154h-154v154h-307v154h-307zM768 -307h154v-154h-154v154zM922 -154h153v-153h-153v153z" />
<glyph unicode="&#xe8;" d="M154 0v1382h1228v-460h-768v-154h615v-154h-615v-153h768v-461h-1228zM614 1690v153h154v-153h-154zM768 1536v154h154v-154h-154z" />
<glyph unicode="&#xe9;" d="M154 0v1382h1228v-460h-768v-154h615v-154h-615v-153h768v-461h-1228zM614 1536v154h154v-154h-154zM768 1690v153h154v-153h-154z" />
<glyph unicode="&#xea;" d="M154 0v1382h1228v-460h-768v-154h615v-154h-615v-153h768v-461h-1228zM461 1536v154h153v-154h-153zM614 1690v153h308v-153h-308zM922 1536v154h153v-154h-153z" />
<glyph unicode="&#xeb;" d="M154 0v1382h1228v-460h-768v-154h615v-154h-615v-153h768v-461h-1228zM307 1536v154h154v-154h-154zM1075 1536v154h154v-154h-154z" />
<glyph unicode="&#xec;" horiz-adv-x="768" d="M154 0v1382h460v-1382h-460zM154 1690v153h153v-153h-153zM307 1536v154h154v-154h-154z" />
<glyph unicode="&#xee;" horiz-adv-x="768" d="M154 0v1382h460v-1382h-460zM154 1536v154h153v-154h-153zM307 1690v153h154v-153h-154zM461 1536v154h153v-154h-153z" />
<glyph unicode="&#xef;" horiz-adv-x="768" d="M154 0v1382h460v-1382h-460zM154 1536v154h153v-154h-153zM461 1536v154h153v-154h-153z" />
<glyph unicode="&#xf1;" d="M154 0v1382h307v-153h153v-154h154v-153h154v460h460v-1382h-307v154h-153v153h-154v154h-154v-461h-460zM461 1536v154h153v-154h-153zM614 1690v153h154v-153h-154zM768 1536v154h154v-154h-154zM922 1690v153h153v-153h-153z" />
<glyph unicode="&#xf2;" d="M154 154v1075h153v153h922v-153h153v-1075h-153v-154h-922v154h-153zM614 461h308v461h-308v-461zM614 1690v153h154v-153h-154zM768 1536v154h154v-154h-154z" />
<glyph unicode="&#xf3;" d="M154 154v1075h153v153h922v-153h153v-1075h-153v-154h-922v154h-153zM614 461h308v461h-308v-461zM614 1536v154h154v-154h-154zM768 1690v153h154v-153h-154z" />
<glyph unicode="&#xf4;" d="M154 154v1075h153v153h922v-153h153v-1075h-153v-154h-922v154h-153zM461 1536v154h153v-154h-153zM614 461h308v461h-308v-461zM614 1690v153h308v-153h-308zM922 1536v154h153v-154h-153z" />
<glyph unicode="&#xf5;" d="M154 154v1075h153v153h922v-153h153v-1075h-153v-154h-922v154h-153zM461 1536v154h153v-154h-153zM614 461h308v461h-308v-461zM614 1690v153h154v-153h-154zM768 1536v154h154v-154h-154zM922 1690v153h153v-153h-153z" />
<glyph unicode="&#xf6;" d="M154 154v1075h153v153h922v-153h153v-1075h-153v-154h-922v154h-153zM307 1536v154h154v-154h-154zM614 461h308v461h-308v-461zM1075 1536v154h154v-154h-154z" />
<glyph unicode="&#xf9;" d="M154 154v1228h460v-921h308v921h460v-1228h-153v-154h-922v154h-153zM614 1690v153h154v-153h-154zM768 1536v154h154v-154h-154z" />
<glyph unicode="&#xfa;" d="M154 154v1228h460v-921h308v921h460v-1228h-153v-154h-922v154h-153zM614 1536v154h154v-154h-154zM768 1690v153h154v-153h-154z" />
<glyph unicode="&#xfb;" d="M154 154v1228h460v-921h308v921h460v-1228h-153v-154h-922v154h-153zM461 1536v154h153v-154h-153zM614 1690v153h308v-153h-308zM922 1536v154h153v-154h-153z" />
<glyph unicode="&#xfc;" d="M154 154v1228h460v-921h308v921h460v-1228h-153v-154h-922v154h-153zM307 1536v154h154v-154h-154zM1075 1536v154h154v-154h-154z" />
<glyph unicode="&#xfd;" horiz-adv-x="1689" d="M154 1075v307h460v-153h154v-154h154v154h153v153h461v-307h-154v-153h-153v-154h-154v-768h-461v768h-153v154h-154v153h-153zM768 1536v154h154v-154h-154zM922 1690v153h153v-153h-153z" />
<glyph unicode="&#xff;" horiz-adv-x="1689" d="M154 1075v307h460v-153h154v-154h154v154h153v153h461v-307h-154v-153h-153v-154h-154v-768h-461v768h-153v154h-154v153h-153zM307 1536v154h154v-154h-154zM1229 1536v154h153v-154h-153z" />
<glyph unicode="&#x152;" horiz-adv-x="2304" d="M154 154v1075h153v153h1843v-460h-768v-154h615v-154h-615v-153h768v-461h-1843v154h-153zM614 461h308v461h-308v-461z" />
<glyph unicode="&#x178;" horiz-adv-x="1689" d="M154 1075v307h460v-153h154v-154h154v154h153v153h461v-307h-154v-153h-153v-154h-154v-768h-461v768h-153v154h-154v153h-153zM307 1536v154h154v-154h-154zM1229 1536v154h153v-154h-153z" />
<glyph unicode="&#x2c6;" horiz-adv-x="921" d="M154 1536v154h153v-154h-153zM307 1690v153h307v-153h-307zM614 1536v154h154v-154h-154z" />
<glyph unicode="&#x2dc;" horiz-adv-x="921" d="M154 1536v154h153v-154h-153zM307 1690v153h154v-153h-154zM461 1536v154h153v-154h-153zM614 1690v153h154v-153h-154z" />
<glyph unicode="&#x2000;" horiz-adv-x="921" />
<glyph unicode="&#x2001;" horiz-adv-x="1843" />
<glyph unicode="&#x2002;" horiz-adv-x="921" />
<glyph unicode="&#x2003;" horiz-adv-x="1843" />
<glyph unicode="&#x2004;" horiz-adv-x="614" />
<glyph unicode="&#x2005;" horiz-adv-x="460" />
<glyph unicode="&#x2006;" horiz-adv-x="307" />
<glyph unicode="&#x2007;" horiz-adv-x="307" />
<glyph unicode="&#x2008;" horiz-adv-x="230" />
<glyph unicode="&#x2009;" horiz-adv-x="368" />
<glyph unicode="&#x200a;" horiz-adv-x="102" />
<glyph unicode="&#x2010;" d="M154 461v461h1228v-461h-1228z" />
<glyph unicode="&#x2011;" d="M154 461v461h1228v-461h-1228z" />
<glyph unicode="&#x2012;" d="M154 461v461h1228v-461h-1228z" />
<glyph unicode="&#x2013;" horiz-adv-x="1228" d="M154 461v461h921v-461h-921z" />
<glyph unicode="&#x2014;" horiz-adv-x="921" d="M154 461v461h614v-461h-614z" />
<glyph unicode="&#x2022;" horiz-adv-x="768" d="M154 461v461h460v-461h-460z" />
<glyph unicode="&#x2026;" d="M154 0v307h307v-307h-307zM614 0v307h308v-307h-308zM1075 0v307h307v-307h-307z" />
<glyph unicode="&#x202f;" horiz-adv-x="368" />
<glyph unicode="&#x205f;" horiz-adv-x="460" />
<glyph unicode="&#x25fc;" horiz-adv-x="1382" d="M0 0v1382h1382v-1382h-1382z" />
</font>
</defs>
</svg>
